# xmcd
#
# Track frame offsets: 
#        150
#        13925
#        31767
#        46450
#        57085
#        70215
#        83182
#        96987
#        109530
#        121552
#        139122
#        149910
#        162055
#        178265
#        192007
#        208260
#        224900
#        237545
#        253977
#        268765
#        284545
#        300200
#        310715
#        318187
#        322742
#
# Disc length: 4434 seconds
#
# Revision: 1
# Processed by: cddbd v1.5PL3 Copyright (c) Steve Scherf et al.
# Submitted via: ExactAudioCopy v0.90b4
#
DISCID=74115019
DTITLE=Cristy Lane - Footprints  Vol I and II
DYEAR=1900
DGENRE=Christian
TTITLE0=Footprints In The Sand
TTITLE1=I Have A Dream
TTITLE2=He Sees My Heart
TTITLE3=Sweet Hour Of Prayer
TTITLE4=What A Friend We Have In Jesus
TTITLE5=Standing On The Promises
TTITLE6=Lay It On Me
TTITLE7=Son Of God Is Born
TTITLE8=I Love To Tell The Story
TTITLE9=I've Come Back
TTITLE10=Jesus Loves Me
TTITLE11=God Bless America
TTITLE12=Danny Boy
TTITLE13=Last Word In Jesus Is Us
TTITLE14=Always Go To Him
TTITLE15=All In His Hands
TTITLE16=Jesus Is Rising Again
TTITLE17=America The Beautiful
TTITLE18=Makin' Up For Lost Time
TTITLE19=My Redeemer
TTITLE20=Jesus, Jesus My Lord
TTITLE21=You Make It Feel Like Sunday
TTITLE22=God Is The Answer
TTITLE23=The Lord's Prayer
TTITLE24=The Star Spangled Banner
EXTD=
EXTT0=
EXTT1=
EXTT2=
EXTT3=
EXTT4=
EXTT5=
EXTT6=
EXTT7=
EXTT8=
EXTT9=
EXTT10=
EXTT11=
EXTT12=
EXTT13=
EXTT14=
EXTT15=
EXTT16=
EXTT17=
EXTT18=
EXTT19=
EXTT20=
EXTT21=
EXTT22=
EXTT23=
EXTT24=
PLAYORDER=
